<svg width="100" height="100" viewBox="0 0 100 100" fill="none" xmlns="http://www.w3.org/2000/svg">
<rect width="100" height="100" rx="25" fill="black"/>
<path d="M40.4968 10.75C43.1333 10.7497 45.6835 11.6892 47.6896 13.3999C49.6957 15.1106 51.0262 17.4804 51.4424 20.0838C52.3965 19.1309 53.529 18.3755 54.7752 17.8607C56.0214 17.3458 57.3568 17.0817 58.7052 17.0833H65.8302V21.0417C65.8302 23.7712 64.7459 26.3889 62.8158 28.319C60.8858 30.249 58.268 31.3333 55.5385 31.3333H51.5802V39.25H48.4135V26.5833H45.2468C42.3074 26.5833 39.4883 25.4156 37.4097 23.3371C35.3312 21.2586 34.1635 18.4395 34.1635 15.5V10.75H40.4968ZM62.6635 20.25H58.7052C56.8155 20.25 55.0032 21.0007 53.667 22.3369C52.3308 23.6731 51.5802 25.4853 51.5802 27.375V28.1667H55.5385C57.4282 28.1667 59.2405 27.416 60.5767 26.0798C61.9128 24.7436 62.6635 22.9313 62.6635 21.0417V20.25ZM40.4968 13.9167H37.3302V15.5C37.3302 17.5996 38.1643 19.6133 39.6489 21.0979C41.1336 22.5826 43.1472 23.4167 45.2468 23.4167H48.4135V21.8333C48.4135 19.7337 47.5794 17.7201 46.0948 16.2354C44.6101 14.7507 42.5965 13.9167 40.4968 13.9167Z" fill="url(#paint0_linear_39_59)"/>
<path d="M35.8333 79C32.7167 79 30.195 81.55 30.195 84.6667C30.195 87.7833 32.7167 90.3333 35.8333 90.3333C38.95 90.3333 41.5 87.7833 41.5 84.6667C41.5 81.55 38.95 79 35.8333 79ZM64.1667 79C61.05 79 58.5283 81.55 58.5283 84.6667C58.5283 87.7833 61.05 90.3333 64.1667 90.3333C67.2833 90.3333 69.8333 87.7833 69.8333 84.6667C69.8333 81.55 67.2833 79 64.1667 79ZM60.0583 64.8333C62.1833 64.8333 64.0533 63.6717 65.0167 61.915L75.16 43.5267C75.3988 43.0972 75.5213 42.6128 75.5154 42.1215C75.5095 41.6301 75.3754 41.1489 75.1264 40.7252C74.8774 40.3016 74.5221 39.9504 74.0956 39.7063C73.6692 39.4621 73.1864 39.3336 72.695 39.3333H30.7617L28.0983 33.6667H18.8333V39.3333H24.5L34.7 60.8383L30.875 67.7517C28.8067 71.5483 31.5267 76.1667 35.8333 76.1667H69.8333V70.5H35.8333L38.95 64.8333H60.0583ZM33.4533 45H67.8783L60.0583 59.1667H40.1683L33.4533 45Z" fill="url(#paint1_linear_39_59)"/>
<defs>
<linearGradient id="paint0_linear_39_59" x1="49.9968" y1="10.75" x2="49.9968" y2="39.25" gradientUnits="userSpaceOnUse">
<stop stop-color="#4DB100"/>
<stop offset="0.807692" stop-color="#204B00"/>
</linearGradient>
<linearGradient id="paint1_linear_39_59" x1="47.1745" y1="33.6667" x2="47.1745" y2="90.3333" gradientUnits="userSpaceOnUse">
<stop stop-color="white"/>
<stop offset="1" stop-color="#999999"/>
</linearGradient>
</defs>
</svg>
