<svg width="100" height="100" viewBox="0 0 100 100" fill="none" xmlns="http://www.w3.org/2000/svg">
<g clip-path="url(#clip0_40_2)">
<rect width="100" height="100" rx="25" fill="#FFDDC4"/>
<rect x="2" y="14" width="18" height="5" rx="2.5" fill="#FF8341"/>
<rect x="13" y="22" width="22" height="5" rx="2.5" transform="rotate(90 13 22)" fill="#FF8341"/>
<rect x="2" y="42" width="18" height="5" rx="2.5" fill="#83D0FF"/>
<path d="M42.4244 36.5844C45.3758 38.4727 46.2749 42.5425 43.4075 44.5559C42.2842 45.3446 41.059 45.9929 39.7577 46.4801C36.4572 47.7155 32.845 47.8473 29.4633 46.8556C26.0815 45.8639 23.1126 43.8022 21.002 40.9799C18.8915 38.1576 17.7532 34.7269 17.7579 31.2028C17.7626 27.6786 18.9102 24.251 21.0283 21.4344C23.1464 18.6178 26.1209 16.564 29.5053 15.5814C32.8897 14.5988 36.5015 14.7403 39.7987 15.9846C41.0987 16.4752 42.3221 17.1269 43.4432 17.9186C46.3053 19.9396 45.3952 24.0071 42.4388 25.8874V25.8874C38.5258 28.3761 38.5181 34.0852 42.4244 36.5844V36.5844Z" fill="#83D0FF"/>
<circle cx="34.7736" cy="30.855" r="10.7043" fill="#FFDDC4"/>
<path d="M95.8773 36.8598C98.8286 38.748 99.7278 42.8179 96.8603 44.8313C95.7371 45.6199 94.5119 46.2683 93.2106 46.7554C89.9101 47.9909 86.2979 48.1227 82.9162 47.131C79.5344 46.1393 76.5655 44.0776 74.4549 41.2553C72.3444 38.433 71.206 35.0023 71.2108 31.4781C71.2155 27.954 72.363 24.5264 74.4812 21.7097C76.5993 18.8931 79.5737 16.8394 82.9581 15.8568C86.3426 14.8741 89.9544 15.0156 93.2515 16.26C94.5516 16.7506 95.775 17.4022 96.8961 18.1939C99.7582 20.215 98.8481 24.2824 95.8916 26.1628V26.1628C91.9787 28.6515 91.971 34.3605 95.8773 36.8598V36.8598Z" fill="#83D0FF"/>
<circle cx="88.2264" cy="31.1304" r="10.7043" fill="#FFDDC4"/>
<path d="M54.8572 24.467C52.308 20.4763 53.5934 14.8937 58.3244 14.689V14.689C61.1963 14.5647 64.0502 15.2009 66.5974 16.5333C69.1447 17.8657 71.2949 19.8471 72.8308 22.277C74.3667 24.707 75.2338 27.4994 75.3444 30.372C75.4549 33.2445 74.8051 36.0953 73.4605 38.6361C72.116 41.177 70.1244 43.3177 67.6871 44.842C65.2498 46.3663 62.4533 47.22 59.5803 47.3169V47.3169C54.8475 47.4764 53.1369 42.0092 55.3717 37.8343L56.1837 36.3174C57.9416 33.0335 57.7886 29.0561 55.7834 25.917L54.8572 24.467Z" fill="#FF8341"/>
<circle cx="58.3055" cy="31.3772" r="10.7287" transform="rotate(179.464 58.3055 31.3772)" fill="#FFDDC4"/>
<rect x="52" y="16" width="31" height="5" rx="2.5" transform="rotate(90 52 16)" fill="#FF8341"/>
<path d="M10.2891 68.3984C11.9297 68.4766 13.1016 68.5859 13.8047 68.7266C14.5078 68.8672 14.8594 69.1484 14.8594 69.5703C14.8594 69.7578 14.7969 69.8906 14.6719 69.9688C14.5625 70.0312 14.375 70.0859 14.1094 70.1328C13.8438 70.1641 13.5312 70.2109 13.1719 70.2734C12.6406 70.3672 11.7656 70.5547 10.5469 70.8359C9.32812 71.1016 8.65625 71.2344 8.53125 71.2344C7.92188 71.2344 7.61719 70.8516 7.61719 70.0859C7.61719 69.3984 7.75781 68.5156 8.03906 67.4375C8.33594 66.3594 8.72656 65.3594 9.21094 64.4375C9.71094 63.5 10.2344 62.8359 10.7812 62.4453C11.4219 61.9922 12.4141 61.5391 13.7578 61.0859C15.1172 60.6172 16.6328 60.2266 18.3047 59.9141C19.9922 59.5859 21.5312 59.4219 22.9219 59.4219C23.625 59.4219 24.1406 59.5234 24.4688 59.7266C24.8125 59.9141 25.0547 60.1797 25.1953 60.5234C25.3359 60.8516 25.5703 61.5312 25.8984 62.5625C26.2109 63.5156 26.3672 64.6016 26.3672 65.8203C26.3672 67.3047 26.0234 68.5859 25.3359 69.6641C24.6484 70.7422 23.6953 71.7344 22.4766 72.6406C21.2578 73.5469 19.125 74.9531 16.0781 76.8594C13.0469 78.75 10.6875 80.2656 9 81.4062C8.84375 81.5156 8.52344 81.7266 8.03906 82.0391C7.55469 82.3359 7.125 82.6484 6.75 82.9766C6.375 83.3047 5.99219 83.7266 5.60156 84.2422C7.69531 84.0391 11.0078 83.4688 15.5391 82.5312C16.7734 82.2656 17.9688 81.9766 19.125 81.6641C20.2969 81.3359 21 81.1719 21.2344 81.1719C21.625 81.1719 21.8203 81.3672 21.8203 81.7578C21.8203 82.1172 21.7344 82.5625 21.5625 83.0938C21.4062 83.6094 21.1719 84.1406 20.8594 84.6875C20.5469 85.2188 20.1797 85.6797 19.7578 86.0703C17.6953 87.9922 13.7109 88.9531 7.80469 88.9531C6.27344 88.9531 5.25 88.7109 4.73438 88.2266C4.42188 87.9453 4.09375 87.3125 3.75 86.3281C3.40625 85.3438 3.23438 84.6172 3.23438 84.1484C3.23438 83.3359 3.63281 82.3438 4.42969 81.1719C5.22656 79.9844 6.32031 78.7734 7.71094 77.5391C9.10156 76.2891 10.6328 75.1797 12.3047 74.2109C17.3984 71.3047 20.1016 69.7422 20.4141 69.5234C21.5547 68.7422 22.4453 67.9531 23.0859 67.1562C23.7422 66.3594 24.0703 65.7188 24.0703 65.2344C24.0703 64.7969 23.8906 64.4609 23.5312 64.2266C23.1875 63.9766 22.6953 63.8516 22.0547 63.8516C21.0391 63.8516 19.8125 64.0391 18.375 64.4141C16.9531 64.7734 15.5078 65.3047 14.0391 66.0078C12.5859 66.6953 11.3359 67.4922 10.2891 68.3984Z" fill="#FF8341"/>
<path d="M46.7891 61.7891C47.5234 62.1172 48.0547 62.6562 48.3828 63.4062C48.7266 64.1406 48.8984 65.2344 48.8984 66.6875C48.8984 68.8906 48.4531 71.2656 47.5625 73.8125C46.6875 76.3594 45.4531 78.75 43.8594 80.9844C42.2812 83.2188 40.4688 85.0625 38.4219 86.5156C36.125 88.1406 34.2422 88.9531 32.7734 88.9531C31.6328 88.9531 30.5625 88.6094 29.5625 87.9219C28.5625 87.2344 27.7656 86.2578 27.1719 84.9922C26.5781 83.7109 26.2812 82.2188 26.2812 80.5156C26.2812 78.1406 26.9297 75.6484 28.2266 73.0391C29.5391 70.4141 31.1953 68.0469 33.1953 65.9375C35.2109 63.8281 37.3047 62.2031 39.4766 61.0625C41.6641 59.9219 43.5391 59.5234 45.1016 59.8672C46.1172 60.0859 46.6797 60.7266 46.7891 61.7891ZM41.3984 66.3828L42.2188 64.6719C41.2969 65.1406 40.4844 65.6016 39.7812 66.0547C39.0781 66.5078 38.2656 67.1484 37.3438 67.9766C36.4375 68.8047 35.4844 69.8438 34.4844 71.0938C32.8594 73.1719 31.6328 75.1875 30.8047 77.1406C29.9766 79.0781 29.5625 80.7266 29.5625 82.0859C29.5625 84.0391 30.2188 85.0156 31.5312 85.0156C32.2812 85.0156 33.3516 84.6094 34.7422 83.7969C36.1484 82.9844 37.6328 81.8672 39.1953 80.4453C40.6953 79.0703 42.0078 77.5312 43.1328 75.8281C44.2734 74.125 45.1406 72.4453 45.7344 70.7891C46.3438 69.1328 46.6484 67.7188 46.6484 66.5469C46.6484 65.7969 46.4844 65.2188 46.1562 64.8125C45.8281 64.3906 45.4141 64.1797 44.9141 64.1797C44.4453 64.1797 43.9453 64.3594 43.4141 64.7188C42.8984 65.0781 42.2266 65.6328 41.3984 66.3828Z" fill="#FF8341"/>
<path d="M56.2891 68.3984C57.9297 68.4766 59.1016 68.5859 59.8047 68.7266C60.5078 68.8672 60.8594 69.1484 60.8594 69.5703C60.8594 69.7578 60.7969 69.8906 60.6719 69.9688C60.5625 70.0312 60.375 70.0859 60.1094 70.1328C59.8438 70.1641 59.5312 70.2109 59.1719 70.2734C58.6406 70.3672 57.7656 70.5547 56.5469 70.8359C55.3281 71.1016 54.6562 71.2344 54.5312 71.2344C53.9219 71.2344 53.6172 70.8516 53.6172 70.0859C53.6172 69.3984 53.7578 68.5156 54.0391 67.4375C54.3359 66.3594 54.7266 65.3594 55.2109 64.4375C55.7109 63.5 56.2344 62.8359 56.7812 62.4453C57.4219 61.9922 58.4141 61.5391 59.7578 61.0859C61.1172 60.6172 62.6328 60.2266 64.3047 59.9141C65.9922 59.5859 67.5312 59.4219 68.9219 59.4219C69.625 59.4219 70.1406 59.5234 70.4688 59.7266C70.8125 59.9141 71.0547 60.1797 71.1953 60.5234C71.3359 60.8516 71.5703 61.5312 71.8984 62.5625C72.2109 63.5156 72.3672 64.6016 72.3672 65.8203C72.3672 67.3047 72.0234 68.5859 71.3359 69.6641C70.6484 70.7422 69.6953 71.7344 68.4766 72.6406C67.2578 73.5469 65.125 74.9531 62.0781 76.8594C59.0469 78.75 56.6875 80.2656 55 81.4062C54.8438 81.5156 54.5234 81.7266 54.0391 82.0391C53.5547 82.3359 53.125 82.6484 52.75 82.9766C52.375 83.3047 51.9922 83.7266 51.6016 84.2422C53.6953 84.0391 57.0078 83.4688 61.5391 82.5312C62.7734 82.2656 63.9688 81.9766 65.125 81.6641C66.2969 81.3359 67 81.1719 67.2344 81.1719C67.625 81.1719 67.8203 81.3672 67.8203 81.7578C67.8203 82.1172 67.7344 82.5625 67.5625 83.0938C67.4062 83.6094 67.1719 84.1406 66.8594 84.6875C66.5469 85.2188 66.1797 85.6797 65.7578 86.0703C63.6953 87.9922 59.7109 88.9531 53.8047 88.9531C52.2734 88.9531 51.25 88.7109 50.7344 88.2266C50.4219 87.9453 50.0938 87.3125 49.75 86.3281C49.4062 85.3438 49.2344 84.6172 49.2344 84.1484C49.2344 83.3359 49.6328 82.3438 50.4297 81.1719C51.2266 79.9844 52.3203 78.7734 53.7109 77.5391C55.1016 76.2891 56.6328 75.1797 58.3047 74.2109C63.3984 71.3047 66.1016 69.7422 66.4141 69.5234C67.5547 68.7422 68.4453 67.9531 69.0859 67.1562C69.7422 66.3594 70.0703 65.7188 70.0703 65.2344C70.0703 64.7969 69.8906 64.4609 69.5312 64.2266C69.1875 63.9766 68.6953 63.8516 68.0547 63.8516C67.0391 63.8516 65.8125 64.0391 64.375 64.4141C62.9531 64.7734 61.5078 65.3047 60.0391 66.0078C58.5859 66.6953 57.3359 67.4922 56.2891 68.3984Z" fill="#FF8341"/>
<path d="M85.6719 60.6406C88.3594 60.7656 90.4219 60.8281 91.8594 60.8281C93.9688 60.8281 95.9844 60.7812 97.9062 60.6875C97.2188 62.1406 96.5625 63.3516 95.9375 64.3203C95.3281 65.2734 94.8984 65.8047 94.6484 65.9141C94.2422 66.0391 92.7188 66.1016 90.0781 66.1016C87.6406 66.1016 85.8984 66.0859 84.8516 66.0547C83.1016 67.5391 81.6953 69.3984 80.6328 71.6328C83.5547 70.6328 85.7422 70.1328 87.1953 70.1328C89.0859 70.1328 90.5547 70.6719 91.6016 71.75C92.6641 72.8281 93.1953 74.3828 93.1953 76.4141C93.1953 78.9922 92.3516 81.2969 90.6641 83.3281C88.9922 85.3594 86.8516 86.9375 84.2422 88.0625C81.6484 89.1719 79 89.7266 76.2969 89.7266C74.75 89.7266 73.6562 89.4844 73.0156 89C72.3594 88.5156 72.0312 87.6328 72.0312 86.3516C72.0312 85.6172 72.1719 85.0156 72.4531 84.5469C72.7344 84.0625 73.2031 83.6094 73.8594 83.1875C75.4688 82.1406 77.1484 81.6172 78.8984 81.6172C79.0859 81.6172 79.1797 81.6797 79.1797 81.8047C79.1797 81.8672 79.1172 81.9297 78.9922 81.9922C78.8828 82.0547 78.8203 82.0859 78.8047 82.0859C76.8203 82.8203 75.8281 83.3984 75.8281 83.8203C75.8281 84.2266 76.4844 84.4297 77.7969 84.4297C79.7188 84.4297 81.7188 83.9531 83.7969 83C85.8906 82.0312 87.6406 80.8906 89.0469 79.5781C90.4688 78.2656 91.1797 77.1953 91.1797 76.3672C91.1797 75.7422 90.8828 75.25 90.2891 74.8906C89.7109 74.5312 88.875 74.3516 87.7812 74.3516C86.7188 74.3516 85.75 74.4453 84.875 74.6328C84.0156 74.8047 83.0391 75.0469 81.9453 75.3594C80.8516 75.6562 80.1719 75.8047 79.9062 75.8047C79.3906 75.8047 79.0391 75.5781 78.8516 75.125C78.6641 74.75 78.4766 74.3828 78.2891 74.0234C78.1172 73.6484 77.9688 73.2656 77.8438 72.875C77.7344 72.4688 77.6719 72.1328 77.6562 71.8672C78.5938 68.4922 81.2656 64.75 85.6719 60.6406Z" fill="#FF8341"/>
</g>
<defs>
<clipPath id="clip0_40_2">
<rect width="100" height="100" rx="25" fill="white"/>
</clipPath>
</defs>
</svg>
